<mxfile host="app.diagrams.net" modified="2023-11-01T08:13:18.353Z" agent="Mozilla/5.0 (Windows NT 10.0; Win64; x64) AppleWebKit/537.36 (KHTML, like Gecko) Chrome/118.0.0.0 Safari/537.36 Edg/118.0.2088.76" version="22.0.8" etag="SEx3_rRkk457TZKLH75y" type="github">
  <diagram name="페이지-1" id="SUZ6uSPGHbtWjK86w04m">
    <mxGraphModel>
      <root>
        <mxCell id="0" />
        <mxCell id="1" parent="0" />
      </root>
    </mxGraphModel>
  </diagram>
</mxfile>
